<?xml version="1.0" encoding="UTF-8"?>
<svg id="_图层_2" data-name="图层 2" xmlns="http://www.w3.org/2000/svg" viewBox="0 0 98 98">
  <defs>
    <style>
      .cls-1 {
        fill: #c30d23;
      }

      .cls-2 {
        fill: none;
        stroke: #fff;
        stroke-miterlimit: 10;
        stroke-width: .9px;
      }
    </style>
  </defs>
  <g id="firecracker">
    <g>
      <circle class="cls-1" cx="49" cy="49" r="49"/>
      <g>
        <g>
          <line class="cls-2" x1="82.45" y1="13.04" x2="18.42" y2="78.23"/>
          <g>
            <line class="cls-2" x1="67.01" y1="17.64" x2="77.62" y2="17.96"/>
            <path class="cls-2" d="M66.32,12.39l-19.71,2.42s-3.27,4.73,1.39,10.49l19.71-2.42"/>
            <ellipse class="cls-2" cx="67.01" cy="17.64" rx="2.41" ry="5.29" transform="translate(-1.75 9.1) rotate(-7.67)"/>
          </g>
          <g>
            <g>
              <path class="cls-2" d="M72.35,27.36l.28,19.16s4.5,3.67,10.96-.15l-.28-19.16"/>
              <ellipse class="cls-2" cx="77.83" cy="27.29" rx="5.48" ry="2.32" transform="translate(-.36 1.04) rotate(-.76)"/>
            </g>
            <line class="cls-2" x1="77.62" y1="17.96" x2="77.83" y2="27.29"/>
          </g>
        </g>
        <g>
          <line class="cls-2" x1="45.58" y1="39.75" x2="56.19" y2="40.07"/>
          <path class="cls-2" d="M44.88,34.51l-19.71,2.42s-3.27,4.73,1.39,10.49l19.71-2.42"/>
          <ellipse class="cls-2" cx="45.58" cy="39.75" rx="2.41" ry="5.29" transform="translate(-4.9 6.44) rotate(-7.67)"/>
        </g>
        <g>
          <line class="cls-2" x1="25.98" y1="59.7" x2="36.59" y2="60.02"/>
          <path class="cls-2" d="M25.29,54.46l-19.71,2.42s-3.27,4.73,1.39,10.49l19.71-2.42"/>
          <ellipse class="cls-2" cx="25.98" cy="59.7" rx="2.41" ry="5.29" transform="translate(-7.73 4) rotate(-7.67)"/>
        </g>
        <g>
          <line class="cls-2" x1="55.29" y1="50.92" x2="55.56" y2="40.69"/>
          <path class="cls-2" d="M49.85,51.62l2.62,19s4.92,3.13,10.87-1.39l-2.62-19"/>
          <ellipse class="cls-2" cx="55.29" cy="50.92" rx="5.48" ry="2.32" transform="translate(-5.94 7.32) rotate(-7.19)"/>
        </g>
        <g>
          <line class="cls-2" x1="36.02" y1="70.58" x2="37.12" y2="60.4"/>
          <path class="cls-2" d="M30.55,70.87l1.08,19.13s4.65,3.49,10.95-.57l-1.08-19.13"/>
          <ellipse class="cls-2" cx="36.02" cy="70.58" rx="5.48" ry="2.32" transform="translate(-3.58 1.95) rotate(-2.95)"/>
        </g>
      </g>
    </g>
  </g>
</svg>